<svg xmlns="http://www.w3.org/2000/svg" width="256" height="256"><path fill-opacity=".016" d="M0 128.004v128.004l128.25-.254 128.25-.254.254-127.75L257.008 0H0v128.004m.485.496c0 70.4.119 99.053.265 63.672.146-35.38.146-92.98 0-128C.604 29.153.485 58.1.485 128.5" fill="#1976D2" fill-rule="evenodd"/><path fill-opacity=".103" d="M51 1.571c-3.025.792-9.325 3.305-14 5.584C24.968 13.023 13.017 24.975 7.16 37-.243 52.198 0 49.113 0 128s-.243 75.802 7.16 91c5.86 12.03 17.81 23.98 29.84 29.84 15.198 7.403 12.113 7.16 91 7.16s75.802.243 91-7.16c6.856-3.34 10.154-5.804 17.049-12.74 9.203-9.257 14.327-17.653 17.454-28.6.943-3.3 2.115-6.781 2.606-7.736 1.039-2.025 1.235-145.442.198-144.404-.381.381-1.284-1.681-2.005-4.584-.722-2.902-3.178-9.101-5.457-13.776-5.868-12.032-17.82-23.983-29.845-29.84C203.776-.255 206.967-.008 127.54.066 69.096.12 55.525.387 51 1.571M.474 128c0 39.875.124 56.188.276 36.25.151-19.937.151-52.562 0-72.5C.598 71.813.474 88.125.474 128M63 123.5V189H37v9h182v-9h-26v-65.5c0-36.025-.277-65.5-.617-65.5-.339 0-14.6 3.6-31.692 8S128.888 74 128 74c-.888 0-15.599-3.6-32.691-8-17.092-4.4-31.353-8-31.692-8-.34 0-.617 29.475-.617 65.5m8 5V189h57V82.292l-27.845-7.146C84.84 71.216 72.015 68 71.655 68c-.36 0-.655 27.225-.655 60.5m104.455-7.045c-4.764 4.763-1.834 11.545 4.988 11.545 6.379 0 8.99-7.941 3.922-11.927-3.46-2.722-5.912-2.617-8.91.382" fill="#1976D2" fill-rule="evenodd"/><path fill-opacity=".271" d="M51.177 2.029C26.463 8.502 8.218 26.938 1.935 51.785.015 59.38-.053 62.492.218 130.596L.5 201.5l3.085 8.618c7.338 20.496 22.206 35.237 42.925 42.558l7.99 2.824 70.904.282c68.104.271 71.216.203 78.811-1.717 24.758-6.261 43.473-24.73 49.631-48.978.986-3.882 2.099-7.365 2.473-7.74.375-.374.681-32.18.681-70.68 0-38.5-.304-69.697-.675-69.325-.371.371-1.484-2.512-2.474-6.407-6.142-24.187-24.783-42.652-49.419-48.952C197.059.097 193.306.003 127.59.055 62.793.107 58.045.229 51.177 2.029m11.58 120.907L62.5 188.5l-12.75.28-12.75.28V199h182v-9.94l-12.75-.28-12.75-.28-.257-65.564-.257-65.563-32.493 8.348L128 74.07l-32.493-8.349-32.493-8.348-.257 65.563M.474 128c0 38.775.124 54.638.276 35.25.151-19.387.151-51.112 0-70.5C.598 73.363.474 89.225.474 128m70.526.481V189h57.018l-.259-53.25-.259-53.25-25.5-6.579c-14.025-3.619-26.737-6.89-28.25-7.269l-2.75-.69v60.519m106.277-7.955c-6.23 2.619-4.436 11.587 2.456 12.279 2.316.232 3.537-.333 5.151-2.385 2.493-3.168 2.656-5.205.647-8.073-1.948-2.78-4.588-3.363-8.254-1.821" fill="#1976D2" fill-rule="evenodd"/><path fill-opacity=".567" d="M55.5 1.478C26.757 6.806 5.232 29.355 1.021 58.55.221 64.103-.02 86.547.224 133c.388 73.825.141 70.942 7.319 85.504a65.916 65.916 0 0 0 29.953 29.953c14.562 7.178 11.679 6.931 85.504 7.319 70.939.372 77.042.073 88.82-4.36 22.504-8.471 40.231-29.978 42.812-51.944.358-3.04 1.037-5.767 1.509-6.059.472-.292.859-30.231.859-66.531 0-36.889-.382-65.764-.865-65.465-.476.294-1.155-1.93-1.509-4.942-.354-3.012-1.765-8.455-3.135-12.095C242.908 21.577 223.955 5.768 200 1.428 189.446-.483 65.853-.441 55.5 1.478M62 122.47v65.47l-12.75.28-12.75.28-.302 5.25-.303 5.25h184.21l-.303-5.25-.302-5.25-12.75-.28-12.75-.28v-65.47c0-36.008-.338-65.464-.75-65.456-.412.008-15.262 3.763-33 8.345L128 73.691l-32.25-8.332c-17.738-4.582-32.587-8.337-33-8.345-.413-.008-.75 29.448-.75 65.456M.472 128c0 36.575.125 51.537.278 33.25.152-18.288.152-48.213 0-66.5C.597 76.462.472 91.425.472 128m70.528.5V188h57v-52.433c0-49.071-.112-52.466-1.75-52.952C120.749 80.981 73.169 69 72.182 69 71.286 69 71 83.382 71 128.5m104.585-6.594c-2.624 2.899-1.753 8.16 1.665 10.063 2.469 1.375 3.031 1.375 5.5 0C188.259 128.902 186.213 120 180 120c-1.48 0-3.466.858-4.415 1.906" fill="#1976D2" fill-rule="evenodd"/></svg>